<svg xmlns="http://www.w3.org/2000/svg" xmlns:xlink="http://www.w3.org/1999/xlink" id="Layer_1" version="1.1" viewBox="108.17 55.32 144.46 144.48">  <!-- Generator: Adobe Illustrator 30.1.0, SVG Export Plug-In . SVG Version: 2.1.1 Build 136)  -->  <defs>    <style>      .st0 {        fill: url(#linear-gradient2);      }      .st1 {        fill: url(#linear-gradient1);      }      .st2 {        fill: url(#linear-gradient);      }    </style>    <linearGradient id="linear-gradient" x1="180.41" y1="125" x2="180.41" y2="50.33" gradientUnits="userSpaceOnUse">      <stop offset="0" stop-color="#f99d41"></stop>      <stop offset="1" stop-color="#f6d70b"></stop>    </linearGradient>    <linearGradient id="linear-gradient1" x1="183.13" y1="194.46" x2="183.13" y2="137.36" gradientUnits="userSpaceOnUse">      <stop offset="0" stop-color="#007dbb"></stop>      <stop offset=".45" stop-color="#38a2db"></stop>      <stop offset="1" stop-color="#8dc8ed"></stop>    </linearGradient>    <linearGradient id="linear-gradient2" x1="181.9" y1="188.19" x2="181.9" y2="133.19" gradientUnits="userSpaceOnUse">      <stop offset=".09" stop-color="#047dbb"></stop>      <stop offset=".62" stop-color="#39a1db"></stop>      <stop offset="1" stop-color="#8dc8ed"></stop>    </linearGradient>  </defs>  <path class="st2" d="M109.26,140.05c-.72-4.06-1.09-8.23-1.09-12.49,0-39.9,32.34-72.24,72.23-72.24s71.6,31.71,72.23,71.06c-21.36,14.26-42.76,9.33-65.39,4.1-25.43-5.86-51.67-11.92-77.98,9.57Z"></path>  <path class="st1" d="M239.14,169.63c-13.11,18.27-34.53,30.17-58.73,30.17-21.1,0-40.07-9.04-53.28-23.48,20.06-18.48,40.35-13.66,61.8-8.58,16.36,3.9,33.16,7.89,50.22,1.88Z"></path>  <path class="st0" d="M251.9,138.01c-.85,5.85-2.4,11.47-4.55,16.77-18.27,12.76-36.72,8.39-56.24,3.75-22.79-5.43-46.34-11.02-69.94,10.37-3.91-5.61-7.06-11.8-9.26-18.42,23.88-22.04,47.84-16.52,73.19-10.65,21.72,5.02,44.1,10.17,66.81-1.82Z"></path></svg>